<svg xmlns="http://www.w3.org/2000/svg" xmlns:xlink="http://www.w3.org/1999/xlink" width="53.334" height="53.333" viewBox="0 0 53.334 53.333">
  <defs>
    <clipPath id="clip-path">
      <rect id="Rectangle_2" data-name="Rectangle 2" width="34.57" height="37.881" fill="none"/>
    </clipPath>
    <clipPath id="clip-path-2">
      <rect id="Rectangle_3" data-name="Rectangle 3" width="23.817" height="39.997" fill="none"/>
    </clipPath>
    <clipPath id="clip-path-3">
      <rect id="Rectangle_4" data-name="Rectangle 4" width="24.723" height="42.231" fill="none"/>
    </clipPath>
    <clipPath id="clip-path-4">
      <rect id="Rectangle_5" data-name="Rectangle 5" width="24.173" height="39.208" fill="none"/>
    </clipPath>
  </defs>
  <g id="Group_89" data-name="Group 89" transform="translate(0)">
    <path id="Path_1" data-name="Path 1" d="M53.334,26.667A26.667,26.667,0,1,1,26.667,0,26.667,26.667,0,0,1,53.334,26.667" fill="#e8424f"/>
    <g id="Group_3" data-name="Group 3" transform="translate(3.6 15.453)" style="mix-blend-mode: multiply;isolation: isolate">
      <g id="Group_2" data-name="Group 2">
        <g id="Group_1" data-name="Group 1" clip-path="url(#clip-path)">
          <path id="Path_2" data-name="Path 2" d="M37.9,49.593A26.683,26.683,0,0,1,3.334,38.906l14.2-24.592Z" transform="translate(-3.334 -14.314)" fill="#e3cadf"/>
        </g>
      </g>
    </g>
    <g id="Group_6" data-name="Group 6" transform="translate(19.708 9.127)" style="mix-blend-mode: multiply;isolation: isolate">
      <g id="Group_5" data-name="Group 5">
        <g id="Group_4" data-name="Group 4" clip-path="url(#clip-path-2)">
          <path id="Path_3" data-name="Path 3" d="M42.071,46.659a23.748,23.748,0,0,1-2.483,1.792L18.254,11.509l1.76-3.055Z" transform="translate(-18.254 -8.454)" fill="#e3cadf"/>
        </g>
      </g>
    </g>
    <g id="Group_9" data-name="Group 9" transform="translate(23.389 2.768)" opacity="0.75" style="mix-blend-mode: multiply;isolation: isolate">
      <g id="Group_8" data-name="Group 8">
        <g id="Group_7" data-name="Group 7" clip-path="url(#clip-path-3)">
          <path id="Path_4" data-name="Path 4" d="M46.387,42.323A25.346,25.346,0,0,1,44.293,44.8L21.664,5.608l1.76-3.044Z" transform="translate(-21.664 -2.564)" fill="#e3cadf"/>
        </g>
      </g>
    </g>
    <g id="Group_12" data-name="Group 12" transform="translate(27.557 0.026)" opacity="0.5" style="mix-blend-mode: multiply;isolation: isolate">
      <g id="Group_11" data-name="Group 11">
        <g id="Group_10" data-name="Group 10" clip-path="url(#clip-path-4)">
          <path id="Path_5" data-name="Path 5" d="M49.7,35.789a24.587,24.587,0,0,1-1.533,3.444L25.524.024A23.816,23.816,0,0,1,29.27.413Z" transform="translate(-25.524 -0.024)" fill="#e3cadf"/>
        </g>
      </g>
    </g>
    <g id="EmC_Leaders" data-name="EmC Leaders" transform="translate(10.499 15.8)">
      <path id="Path_3747" data-name="Path 3747" d="M33.2,67.465V54.843h6.1v2.514h-3.37v2.478h3.1v2.353h-3.1V64.9h3.584v2.567Z" transform="translate(-33.163 -54.505)" fill="#fff"/>
      <path id="Path_3748" data-name="Path 3748" d="M66.638,65.239v1.319h.036a2.282,2.282,0,0,1,.749-1.167,2.162,2.162,0,0,1,1.462-.49,2.049,2.049,0,0,1,1.489.481,2.611,2.611,0,0,1,.686,1.176H71.1a2.9,2.9,0,0,1,.33-.615,2.459,2.459,0,0,1,.5-.526,2.5,2.5,0,0,1,.678-.374,2.466,2.466,0,0,1,.865-.142,2.322,2.322,0,0,1,1.3.33,2.172,2.172,0,0,1,.767.883,4.2,4.2,0,0,1,.366,1.266,10.861,10.861,0,0,1,.1,1.48v5.7H73.235V68.841a2.774,2.774,0,0,0-.178-1.034.668.668,0,0,0-.678-.446.871.871,0,0,0-.793.472,2.435,2.435,0,0,0-.276,1.239v5.491H68.563V68.841a2.9,2.9,0,0,0-.169-1.034.652.652,0,0,0-.669-.446.871.871,0,0,0-.793.472,2.435,2.435,0,0,0-.276,1.239v5.491H63.91V65.239Z" transform="translate(-54.839 -61.603)" fill="#fff"/>
      <path id="Path_3749" data-name="Path 3749" d="M121.115,66.5a4.2,4.2,0,0,1-2.14.49,4.126,4.126,0,0,1-2.006-.49,4.64,4.64,0,0,1-1.542-1.373,6.763,6.763,0,0,1-1-2.1,9.533,9.533,0,0,1-.357-2.683,9.7,9.7,0,0,1,.357-2.71,6.632,6.632,0,0,1,1-2.1,4.588,4.588,0,0,1,1.542-1.355,4.187,4.187,0,0,1,2.006-.481,4.425,4.425,0,0,1,2.113.455,4.157,4.157,0,0,1,1.364,1.132l-1.534,2.068a2.674,2.674,0,0,0-.722-.677,1.874,1.874,0,0,0-1.007-.25,1.641,1.641,0,0,0-.989.3,2.521,2.521,0,0,0-.713.829,4.22,4.22,0,0,0-.437,1.248,7.958,7.958,0,0,0-.142,1.542,7.817,7.817,0,0,0,.142,1.533,4.349,4.349,0,0,0,.437,1.248,2.453,2.453,0,0,0,.722.838,1.68,1.68,0,0,0,1,.3,1.758,1.758,0,0,0,1-.285,2.294,2.294,0,0,0,.677-.678l1.587,1.979a4.267,4.267,0,0,1-1.355,1.221" transform="translate(-90.238 -53.693)" fill="#fff"/>
      <path id="Path_3750" data-name="Path 3750" d="M33.086,117.582v-5.2h.888v4.382h1.431v.815Z" transform="translate(-33.086 -95.113)" fill="#fff"/>
      <path id="Path_3751" data-name="Path 3751" d="M47.779,117.582v-5.2h2.327v.778H48.623v1.38H50v.719H48.623V116.8H50.18v.785Z" transform="translate(-43.455 -95.113)" fill="#fff"/>
      <path id="Path_3752" data-name="Path 3752" d="M64.541,117.582l-.257-1.1H62.918l-.264,1.1h-.881l1.292-5.2h1.123l1.27,5.2Zm-.918-4.368h-.029l-.565,2.577h1.145Z" transform="translate(-53.33 -95.114)" fill="#fff"/>
      <path id="Path_3753" data-name="Path 3753" d="M84.347,114.991a3.1,3.1,0,0,1-.518,1.912,1.8,1.8,0,0,1-1.523.679h-1.3v-5.2h1.307a1.781,1.781,0,0,1,1.516.686,3.13,3.13,0,0,1,.518,1.92m-.881,0a3.428,3.428,0,0,0-.084-.807,1.761,1.761,0,0,0-.239-.572,1.033,1.033,0,0,0-.367-.342.968.968,0,0,0-.463-.114h-.418v3.656h.418a.965.965,0,0,0,.463-.114,1.035,1.035,0,0,0,.367-.341,1.762,1.762,0,0,0,.239-.569,3.345,3.345,0,0,0,.084-.8" transform="translate(-66.903 -95.114)" fill="#fff"/>
      <path id="Path_3754" data-name="Path 3754" d="M100.064,117.582v-5.2h2.327v.778h-1.483v1.38h1.373v.719h-1.373V116.8h1.556v.785Z" transform="translate(-80.353 -95.113)" fill="#fff"/>
      <path id="Path_3755" data-name="Path 3755" d="M117.956,117.582l-.807-2.217h-.492v2.217h-.852v-5.2h1.483a1.99,1.99,0,0,1,.595.084,1.181,1.181,0,0,1,.466.268,1.258,1.258,0,0,1,.3.462,1.817,1.817,0,0,1,.11.668,1.687,1.687,0,0,1-.077.532,1.442,1.442,0,0,1-.195.393,1.107,1.107,0,0,1-.261.261.9.9,0,0,1-.283.136l.933,2.393Zm-.059-3.67a.99.99,0,0,0-.066-.389.606.606,0,0,0-.411-.367.984.984,0,0,0-.264-.037h-.5v1.6h.5a.735.735,0,0,0,.532-.2.8.8,0,0,0,.209-.606" transform="translate(-91.461 -95.114)" fill="#fff"/>
      <path id="Path_3756" data-name="Path 3756" d="M134.592,113.074a.9.9,0,0,0-.72-.345.743.743,0,0,0-.242.04.591.591,0,0,0-.363.356.9.9,0,0,0-.055.33.653.653,0,0,0,.2.51,2.3,2.3,0,0,0,.521.341q.191.1.389.22a1.753,1.753,0,0,1,.36.3,1.406,1.406,0,0,1,.367.991,1.755,1.755,0,0,1-.121.675,1.5,1.5,0,0,1-.323.5,1.326,1.326,0,0,1-.474.3,1.6,1.6,0,0,1-.572.1,1.892,1.892,0,0,1-.8-.169,1.688,1.688,0,0,1-.587-.426l.477-.646a1.212,1.212,0,0,0,.407.323,1.09,1.09,0,0,0,.488.118.614.614,0,0,0,.462-.191.741.741,0,0,0,.184-.536.685.685,0,0,0-.22-.536,2.482,2.482,0,0,0-.558-.367,3.31,3.31,0,0,1-.4-.228,1.523,1.523,0,0,1-.331-.3,1.337,1.337,0,0,1-.227-.4,1.616,1.616,0,0,1-.085-.554,1.7,1.7,0,0,1,.129-.694,1.422,1.422,0,0,1,.338-.481,1.366,1.366,0,0,1,.474-.283,1.628,1.628,0,0,1,.536-.092,1.847,1.847,0,0,1,.708.128,1.361,1.361,0,0,1,.525.378Z" transform="translate(-103.009 -94.797)" fill="#fff"/>
    </g>
  </g>
</svg>
